<svg width="24" height="24" viewBox="0 0 24 24" fill="none" xmlns="http://www.w3.org/2000/svg">
<path d="M20 11.4V6L16 2H4C3.46957 2 2.96086 2.21071 2.58579 2.58579C2.21071 2.96086 2 3.46957 2 4V18C2 18.5304 2.21071 19.0391 2.58579 19.4142C2.96086 19.7893 3.46957 20 4 20H11.4L20 11.4ZM14 14C14 15.66 12.66 17 11 17C9.34 17 8 15.66 8 14C8 12.34 9.34 11 11 11C12.66 11 14 12.34 14 14ZM5 5H14V9H5V5Z" fill="#E0E0E0"/>
<path fill-rule="evenodd" clip-rule="evenodd" d="M15 19.6188L19 15L23 19.6188L20.75 19.6188L20.75 22.2376L17.25 22.2376L17.25 19.6188L15 19.6188Z" fill="#D9D9D9"/>
</svg>
