<svg width="24" height="24" viewBox="0 0 24 24" fill="none" xmlns="http://www.w3.org/2000/svg">
<path d="M16 5.17778V2.77778L14.2222 1H8.88889C8.65314 1 8.42705 1.09365 8.26035 1.26035C8.09365 1.42705 8 1.65314 8 1.88889V8.11111C8 8.34686 8.09365 8.57295 8.26035 8.73965C8.42705 8.90635 8.65314 9 8.88889 9H12.1778H15.1111C15.602 9 16 8.60203 16 8.11111V5.17778ZM13.3333 6.33333C13.3333 7.07111 12.7378 7.66667 12 7.66667C11.2622 7.66667 10.6667 7.07111 10.6667 6.33333C10.6667 5.59556 11.2622 5 12 5C12.7378 5 13.3333 5.59556 13.3333 6.33333ZM9.33333 2.33333H13.3333V4.11111H9.33333V2.33333Z" fill="#E0E0E0"/>
<path d="M23 19.1778V16.7778L21.2222 15H15.8889C15.6531 15 15.427 15.0937 15.2603 15.2603C15.0937 15.427 15 15.6531 15 15.8889V22.1111C15 22.3469 15.0937 22.573 15.2603 22.7397C15.427 22.9063 15.6531 23 15.8889 23H19.1778H22.1111C22.602 23 23 22.602 23 22.1111V19.1778ZM20.3333 20.3333C20.3333 21.0711 19.7378 21.6667 19 21.6667C18.2622 21.6667 17.6667 21.0711 17.6667 20.3333C17.6667 19.5956 18.2622 19 19 19C19.7378 19 20.3333 19.5956 20.3333 20.3333ZM16.3333 16.3333H20.3333V18.1111H16.3333V16.3333Z" fill="#E0E0E0"/>
<path d="M9 19.1778V16.7778L7.22222 15H1.88889C1.65314 15 1.42705 15.0937 1.26035 15.2603C1.09365 15.427 1 15.6531 1 15.8889V22.1111C1 22.3469 1.09365 22.573 1.26035 22.7397C1.42705 22.9063 1.65314 23 1.88889 23H5.17778H8.11111C8.60203 23 9 22.602 9 22.1111V19.1778ZM6.33333 20.3333C6.33333 21.0711 5.73778 21.6667 5 21.6667C4.26222 21.6667 3.66667 21.0711 3.66667 20.3333C3.66667 19.5956 4.26222 19 5 19C5.73778 19 6.33333 19.5956 6.33333 20.3333ZM2.33333 16.3333H6.33333V18.1111H2.33333V16.3333Z" fill="#E0E0E0"/>
<path d="M12 15.5V12M12 12H5C4.44772 12 4 12.4477 4 13V14M12 12H19C19.5523 12 20 12.4477 20 13V14M12 12V10" stroke="#E0E0E0" stroke-linecap="round"/>
</svg>
