<svg width="24" height="24" viewBox="0 0 24 24" fill="none" xmlns="http://www.w3.org/2000/svg">
<g clip-path="url(#clip0_4_33)">
<path d="M20 11.4V6L16 2H4C3.46957 2 2.96086 2.21071 2.58579 2.58579C2.21071 2.96086 2 3.46957 2 4V18C2 18.5304 2.21071 19.0391 2.58579 19.4142C2.96086 19.7893 3.46957 20 4 20H11.4L20 11.4ZM14 14C14 15.66 12.66 17 11 17C9.34 17 8 15.66 8 14C8 12.34 9.34 11 11 11C12.66 11 14 12.34 14 14ZM5 5H14V9H5V5Z" fill="#E0E0E0"/>
<path d="M18.208 22L16.228 15.868H18.76L19.66 19.372H19.744L20.656 15.868H22.972L20.956 22H18.208Z" fill="#E0E0E0"/>
</g>
<defs>
<clipPath id="clip0_4_33">
<rect width="24" height="24" fill="white"/>
</clipPath>
</defs>
</svg>
